<svg width="51" height="51" viewBox="0 0 51 51" fill="none" xmlns="http://www.w3.org/2000/svg">
<rect x="1.60767" y="1.08185" width="48" height="48" rx="9" stroke="black" stroke-width="2"/>
<path d="M17.7285 31.3183L17.5845 38.3743L21.6165 38.7583C21.6165 39.6543 21.3445 40.6143 20.8005 41.6383H9.76046L9.61646 39.9583C11.1205 39.4463 12.5925 39.0623 14.0325 38.8063C13.7125 26.3903 13.4565 17.0783 13.2645 10.8703C12.0805 10.6463 10.6565 10.2623 8.99246 9.71827L9.13646 8.03827H21.1365C21.6805 9.06227 21.9525 10.0223 21.9525 10.9183C20.3525 11.0463 19.0725 11.1103 18.1125 11.1103C18.0485 14.4383 17.9845 17.4463 17.9205 20.1343C17.8885 22.8223 17.8565 24.7103 17.8245 25.7983L29.2965 11.3023L25.4565 10.9183C25.4565 10.0223 25.7285 9.06227 26.2725 8.03827H38.4645L38.6085 10.1503C37.1365 10.6623 35.6965 11.0463 34.2885 11.3023L24.8325 22.6783L35.8725 38.3743L39.9045 38.7583C39.9045 39.6543 39.6325 40.6143 39.0885 41.6383H33.0885L22.1925 25.9423L17.7285 31.3183Z" fill="#16E131"/>
<path d="M22.1925 8.03827C26.2565 8.03827 29.2645 8.71027 31.2165 10.0543C33.2005 11.3663 34.1925 13.7023 34.1925 17.0623C34.1925 20.4223 33.2165 23.0943 31.2645 25.0783C29.3125 27.0303 26.1605 28.0063 21.8085 28.0063H17.7765L17.6325 38.4223L21.3765 38.7583C21.3765 39.6543 21.1045 40.6143 20.5605 41.6383H9.76046L9.61646 40.0063C10.9605 39.4943 12.3365 39.1103 13.7445 38.8543C13.5525 26.3743 13.3925 17.0943 13.2645 11.0143C12.4005 10.8543 10.9925 10.4703 9.04046 9.86227L9.28046 8.03827H22.1925ZM21.3285 24.8863C24.0805 24.8543 26.1765 24.1663 27.6165 22.8223C29.0565 21.4463 29.7765 19.6383 29.7765 17.3983C29.7765 15.1583 29.0725 13.6063 27.6645 12.7423C26.2565 11.8463 24.0005 11.3983 20.8965 11.3983C20.3205 11.3983 19.3445 11.4143 17.9685 11.4463C17.9685 11.4783 17.9205 15.9743 17.8245 24.9343L21.3285 24.8863Z" fill="#1627E1"/>
</svg>
